HIERARCHY
ROOT Hips
{
    OFFSET 0.000000 0.000000 0.000000
    CHANNELS 6 Xposition Yposition Zposition Zrotation Xrotation Yrotation
    JOINT Spine
    {
        OFFSET -0.000000 7.246840 0.000000
        CHANNELS 3 Zrotation Xrotation Yrotation
        JOINT Spine1
        {
            OFFSET -0.000000 20.289354 0.000000
            CHANNELS 3 Zrotation Xrotation Yrotation
            JOINT Neck
            {
                OFFSET -0.000000 20.206032 1.836912
                CHANNELS 3 Zrotation Xrotation Yrotation
                JOINT Head
                {
                    OFFSET -0.000000 12.372654 -1.767522
                    CHANNELS 3 Zrotation Xrotation Yrotation
                    End Site
                    {
                        OFFSET -0.000000 22.094025 0.000000
                    }
                }
            }
            JOINT LeftShoulder
            {
                OFFSET 3.465871 17.201674 -0.568930
                CHANNELS 3 Zrotation Xrotation Yrotation
                JOINT LeftArm
                {
                    OFFSET 14.070313 0.000000 0.000000
                    CHANNELS 3 Zrotation Xrotation Yrotation
                    JOINT LeftForeArm
                    {
                        OFFSET 26.549477 0.000000 0.000000
                        CHANNELS 3 Zrotation Xrotation Yrotation
                        JOINT LeftHand
                        {
                            OFFSET 18.880413 0.000000 0.000000
                            CHANNELS 3 Zrotation Xrotation Yrotation
                            End Site
                            {
                                OFFSET 13.256415 0.000000 0.000000
                            }
                        }
                    }
                }
            }
            JOINT RightShoulder
            {
                OFFSET -3.526370 17.201674 -0.568930
                CHANNELS 3 Zrotation Xrotation Yrotation
                JOINT RightArm
                {
                    OFFSET -14.070313 0.000000 0.000000
                    CHANNELS 3 Zrotation Xrotation Yrotation
                    JOINT RightForeArm
                    {
                        OFFSET -26.549477 0.000000 0.000000
                        CHANNELS 3 Zrotation Xrotation Yrotation
                        JOINT RightHand
                        {
                            OFFSET -18.880413 0.000000 0.000000
                            CHANNELS 3 Zrotation Xrotation Yrotation
                            End Site
                            {
                                OFFSET -13.256415 0.000000 0.000000
                            }
                        }
                    }
                }
            }
        }
    }
    JOINT LeftUpLeg
    {
        OFFSET 8.837609 0.000000 0.000000
        CHANNELS 3 Zrotation Xrotation Yrotation
        JOINT LeftLeg
        {
            OFFSET -0.000000 -41.345005 0.000000
            CHANNELS 3 Zrotation Xrotation Yrotation
            JOINT LeftFoot
            {
                OFFSET -0.000000 -35.500874 0.000000
                CHANNELS 3 Zrotation Xrotation Yrotation
                JOINT LeftToeBase
                {
                    OFFSET -0.000000 -5.744446 13.256415
                    CHANNELS 3 Zrotation Xrotation Yrotation
                    End Site
                    {
                        OFFSET -0.000000 0.000000 3.535044
                    }
                }
            }
        }
    }
    JOINT RightUpLeg
    {
        OFFSET -8.837609 0.000000 0.000000
        CHANNELS 3 Zrotation Xrotation Yrotation
        JOINT RightLeg
        {
            OFFSET -0.000000 -41.345005 0.000000
            CHANNELS 3 Zrotation Xrotation Yrotation
            JOINT RightFoot
            {
                OFFSET -0.000000 -35.500874 0.000000
                CHANNELS 3 Zrotation Xrotation Yrotation
                JOINT RightToeBase
                {
                    OFFSET -0.000000 -5.744446 13.256415
                    CHANNELS 3 Zrotation Xrotation Yrotation
                    End Site
                    {
                        OFFSET -0.000000 0.000000 3.535044
                    }
                }
            }
        }
    }
}
MOTION
Frames:    8
Frame Time:    0.010000
7.449250    82.721756    60.417305    0.123787    -0.438504    -3.473432    -3.168341    -11.246010    -0.596485    -2.384057    10.375875    -0.068045    -1.113582    20.212254    -0.851678    8.503884    -4.211207    0.593870    6.933215    4.853207    12.597670    -79.602386    49.375877    -3.965918    -3.365008    -29.079895    -47.477455    -77.058098    -13.229781    -22.784758    -6.946518    2.184770    12.021320    81.297134    48.103371    1.383629    1.353118    -22.141060    46.965469    44.544243    -11.866135    27.104574    -2.600157    3.296869    -0.623181    -1.917880    8.207290    -5.840159    6.505270    -8.830934    -3.247459    0.642921    -4.275071    -0.924336    -4.366560    2.686738    5.989810    8.390550    -9.961321    2.367787    -1.786430    6.869657    -3.936618    0.434835    1.801026    -0.765063    
7.450485    82.743660    60.318913    0.207125    -0.325745    -3.644854    -3.137508    -11.247303    -0.596899    -2.732523    10.199489    -0.044067    -1.025907    20.198158    -0.929601    8.724985    -4.043319    0.543431    6.982372    4.779974    12.610126    -79.639015    49.226913    -3.838844    -3.460862    -29.307148    -47.209759    -77.157906    -13.319976    -22.980038    -6.917126    2.217045    12.031785    81.360199    48.225105    1.571186    1.207321    -22.040178    46.745861    44.463398    -11.791756    26.930454    -2.671372    3.326377    -0.644669    -1.955963    7.778177    -5.727395    6.449582    -8.642706    -3.220304    0.597533    -4.229599    -0.858828    -4.411114    2.439870    5.903668    8.376255    -9.869064    2.516542    -1.801143    6.903693    -3.879022    0.435858    1.806959    -0.766816    
7.447347    82.759720    60.227757    0.290054    -0.209225    -3.829209    -3.126598    -11.274960    -0.587609    -3.013719    10.042551    -0.014142    -1.016874    20.248785    -1.018254    8.961249    -3.971959    0.487698    6.969720    4.703907    12.594990    -79.631714    49.090218    -3.727720    -3.323693    -29.282072    -46.939007    -77.150826    -13.348762    -22.833136    -6.919464    2.269193    12.048408    81.399597    48.349815    1.771229    1.057929    -21.966461    46.556477    44.482590    -11.728312    26.731583    -2.750520    3.314840    -0.495056    -1.944060    7.338779    -4.759642    6.296538    -8.491816    -4.234629    0.570318    -4.227759    -0.819704    -4.450857    2.194854    5.818130    8.358600    -9.785894    2.662828    -1.812447    6.943105    -3.823278    0.421292    1.803360    -0.741218    
7.442228    82.772537    60.142159    0.377547    -0.099675    -3.999094    -3.114859    -11.295098    -0.577364    -3.289250    9.886137    0.015048    -0.981971    20.247501    -1.104148    9.117525    -3.840393    0.417189    6.955935    4.663933    12.608872    -79.570801    49.031815    -3.712589    -3.079548    -29.233446    -46.618374    -77.129211    -13.308329    -22.688398    -6.896336    2.331502    12.089293    81.471664    48.553215    1.874765    0.837372    -22.001692    46.453327    44.565178    -11.729295    26.544056    -2.826030    3.330320    -0.526853    -1.978153    6.957025    -4.600987    6.368406    -8.300830    -4.228824    0.533411    -4.227450    -0.766657    -4.499828    1.977315    5.782435    8.348773    -9.737383    2.825849    -1.852546    6.984746    -3.830610    0.411952    1.828914    -0.724593    
7.440585    82.781448    60.064739    0.466722    -0.015362    -4.151960    -3.110323    -11.296889    -0.569221    -3.544635    9.747076    0.040813    -0.882306    20.284397    -1.192728    9.135968    -3.807742    0.329158    6.933887    4.664819    12.615292    -79.500565    48.858788    -3.756350    -2.845563    -29.098181    -46.307495    -77.041344    -13.256544    -22.473879    -6.861959    2.336693    12.133770    81.538094    48.650909    1.920948    0.705868    -21.922853    46.382050    44.645397    -11.634359    26.390179    -2.906062    3.361194    -0.557215    -2.003349    6.605623    -4.515188    6.394464    -8.116808    -4.168694    0.520214    -4.199252    -0.747553    -4.551692    1.797890    5.730098    8.329401    -9.694019    2.960528    -1.874530    7.029555    -3.801257    0.424831    1.828113    -0.747253    
7.441975    82.783096    59.994179    0.554526    0.054239    -4.309943    -3.105389    -11.293897    -0.548816    -3.777396    9.629089    0.076379    -0.853215    20.273663    -1.290817    9.224024    -3.714052    0.236421    6.952010    4.571011    12.555046    -79.650223    48.658604    -3.585040    -2.394220    -28.722208    -46.066734    -76.814247    -13.230144    -21.850309    -6.835380    2.323995    12.168309    81.621399    48.735863    1.935993    0.661971    -21.874266    46.320751    44.672447    -11.584356    26.326080    -2.987411    3.401213    -0.624133    -2.029382    6.278713    -4.434536    6.445760    -7.954661    -4.056052    0.512188    -4.159958    -0.735832    -4.610640    1.650048    5.696241    8.326863    -9.689231    3.097476    -1.923555    7.089995    -3.782311    0.410466    1.814060    -0.722092    
7.445367    82.781799    59.929413    0.634863    0.105381    -4.462591    -3.081731    -11.278337    -0.521980    -4.006797    9.530979    0.116575    -0.816147    20.217463    -1.404840    9.262823    -3.583575    0.116149    6.892168    4.681380    12.574725    -79.471199    48.441807    -3.826638    -2.268065    -28.779795    -45.759800    -76.773438    -13.298884    -21.787695    -6.799534    2.339062    12.151344    81.606110    48.797306    2.038727    0.634396    -21.763622    46.253838    44.671005    -11.534652    26.142399    -3.077182    3.459360    -0.657204    -2.041499    5.962884    -4.362845    6.484419    -7.774419    -3.940415    0.527990    -4.159660    -0.758532    -4.658178    1.530992    5.652088    8.300880    -9.697634    3.186860    -1.915391    7.145565    -3.711063    0.413862    1.860201    -0.727716    
7.445750    82.773834    59.867470    0.693845    0.121699    -4.600517    -3.062017    -11.211542    -0.498446    -4.181904    9.426125    0.147125    -0.796156    20.159567    -1.514699    9.285990    -3.474005    -0.001681    6.903701    4.553119    12.620511    -79.625160    48.320580    -3.710899    -1.994704    -28.675808    -45.431442    -76.667892    -13.280250    -21.563931    -6.766550    2.343228    12.153576    81.590042    48.845661    2.115945    0.607770    -21.659882    46.175514    44.668053    -11.472826    26.005888    -3.149537    3.537804    -0.682191    -2.035136    5.682020    -4.330695    6.587206    -7.604756    -3.827288    0.488445    -4.179122    -0.701810    -4.703236    1.466970    5.662127    8.301340    -9.746794    3.210428    -1.947708    7.204168    -3.631066    0.413923    1.875042    -0.727711    
